<svg width="37" height="37" viewBox="0 0 37 37" fill="none" xmlns="http://www.w3.org/2000/svg">
<path d="M17.9219 6.9375C11.2142 6.9375 5.78125 12.2426 5.78125 18.7925C5.78125 24.0383 9.2565 28.4691 14.0824 30.0399C14.6894 30.1436 14.9171 29.7879 14.9171 29.4767C14.9171 29.1952 14.9019 28.2616 14.9019 27.2688C11.8516 27.817 11.0624 26.5426 10.8196 25.8758C10.683 25.535 10.0912 24.4828 9.5752 24.2013C9.15027 23.979 8.54324 23.4307 9.56002 23.4159C10.5161 23.4011 11.199 24.2754 11.4266 24.631C12.5193 26.4241 14.2645 25.9203 14.9626 25.6091C15.0688 24.8385 15.3875 24.3198 15.7366 24.0235C13.0353 23.7271 10.2126 22.7046 10.2126 18.1701C10.2126 16.8808 10.683 15.8139 11.457 14.9841C11.3356 14.6877 10.9107 13.4725 11.5784 11.8425C11.5784 11.8425 12.5952 11.5313 14.9171 13.0576C15.8883 12.7909 16.9203 12.6575 17.9522 12.6575C18.9842 12.6575 20.0161 12.7909 20.9874 13.0576C23.3093 11.5165 24.3261 11.8425 24.3261 11.8425C24.9938 13.4725 24.5689 14.6877 24.4475 14.9841C25.2214 15.8139 25.6919 16.866 25.6919 18.1701C25.6919 22.7194 22.854 23.7271 20.1527 24.0235C20.5928 24.3939 20.9722 25.1052 20.9722 26.2166C20.9722 27.8022 20.957 29.0766 20.957 29.4767C20.957 29.7879 21.1847 30.1584 21.7917 30.0399C24.202 29.2456 26.2964 27.7331 27.7801 25.7154C29.2638 23.6977 30.0621 21.2764 30.0625 18.7925C30.0625 12.2426 24.6296 6.9375 17.9219 6.9375Z" fill="#ABB2BF"/>
</svg>
