<svg width="33" height="33" viewBox="0 0 33 33" fill="none" xmlns="http://www.w3.org/2000/svg">
<path d="M4.125 5.89772C4.125 4.91855 4.93866 4.125 5.94258 4.125H27.0574C28.0613 4.125 28.875 4.91855 28.875 5.89772V27.1023C28.875 28.0815 28.0613 28.875 27.0574 28.875H5.94258C4.93866 28.875 4.125 28.0815 4.125 27.1023V5.89772ZM11.7712 24.8438V13.6677H8.05716V24.8438H11.7712ZM9.91495 12.1409C11.2097 12.1409 12.0156 11.2839 12.0156 10.2104C11.9924 9.11367 11.2112 8.27991 9.9397 8.27991C8.66817 8.27991 7.8375 9.11522 7.8375 10.2104C7.8375 11.2839 8.64342 12.1409 9.8902 12.1409H9.91495ZM17.507 24.8438V18.6022C17.507 18.2681 17.5318 17.934 17.6308 17.6957C17.8984 17.029 18.5094 16.3376 19.5365 16.3376C20.8808 16.3376 21.4175 17.3616 21.4175 18.8652V24.8438H25.1316V18.4336C25.1316 14.9995 23.3001 13.4032 20.856 13.4032C18.8853 13.4032 18.002 14.486 17.507 15.2486V15.2873H17.4823C17.4905 15.2743 17.4987 15.2614 17.507 15.2486V13.6677H13.7945C13.8409 14.7165 13.7945 24.8438 13.7945 24.8438H17.507Z" fill="#ABB2BF"/>
</svg>
